<?xml version="1.0" encoding="utf-8" standalone="no"?>
<!DOCTYPE svg PUBLIC "-//W3C//DTD SVG 1.1//EN"
  "http://www.w3.org/Graphics/SVG/1.1/DTD/svg11.dtd">
<svg xmlns:xlink="http://www.w3.org/1999/xlink" width="864pt" height="576pt" viewBox="0 0 864 576" xmlns="http://www.w3.org/2000/svg" version="1.1">
 <metadata>
  <rdf:RDF xmlns:dc="http://purl.org/dc/elements/1.1/" xmlns:cc="http://creativecommons.org/ns#" xmlns:rdf="http://www.w3.org/1999/02/22-rdf-syntax-ns#">
   <cc:Work>
    <dc:type rdf:resource="http://purl.org/dc/dcmitype/StillImage"/>
    <dc:date>2024-11-18T17:53:50.904950</dc:date>
    <dc:format>image/svg+xml</dc:format>
    <dc:creator>
     <cc:Agent>
      <dc:title>Matplotlib v3.7.3, https://matplotlib.org/</dc:title>
     </cc:Agent>
    </dc:creator>
   </cc:Work>
  </rdf:RDF>
 </metadata>
 <defs>
  <style type="text/css">*{stroke-linejoin: round; stroke-linecap: butt}</style>
 </defs>
 <g id="figure_1">
  <g id="patch_1">
   <path d="M 0 576 
L 864 576 
L 864 0 
L 0 0 
z
" style="fill: #ffffff"/>
  </g>
  <g id="axes_1">
   <g id="patch_2">
    <path d="M 108 512.64 
L 777.6 512.64 
L 777.6 69.12 
L 108 69.12 
z
" style="fill: #ffffff"/>
   </g>
   <g id="matplotlib.axis_1">
    <g id="xtick_1">
     <g id="line2d_1">
      <defs>
       <path id="m7ecb13a13d" d="M 0 0 
L 0 3.5 
" style="stroke: #000000; stroke-width: 0.8"/>
      </defs>
      <g>
       <use xlink:href="#m7ecb13a13d" x="138.436364" y="512.64" style="stroke: #000000; stroke-width: 0.8"/>
      </g>
     </g>
     <g id="text_1">
      <!-- 0.0 -->
      <g transform="translate(130.816832 527.130625) scale(0.1 -0.1)">
       <defs>
        <path id="IPAexGothic-30" d="M 2038 4725 
Q 2881 4725 3334 3944 
Q 3694 3325 3694 2344 
Q 3694 1372 3334 741 
Q 2888 -31 2016 -31 
Q 1147 -31 700 741 
Q 341 1372 341 2350 
Q 341 3713 1000 4334 
Q 1419 4725 2038 4725 
z
M 2016 4266 
Q 1516 4266 1228 3759 
Q 934 3247 934 2344 
Q 934 1456 1222 947 
Q 1513 447 2016 447 
Q 2619 447 2909 1153 
Q 3100 1622 3100 2375 
Q 3100 3256 2806 3759 
Q 2509 4266 2016 4266 
z
" transform="scale(0.015625)"/>
        <path id="IPAexGothic-2e" d="M 1184 63 
L 494 63 
L 494 753 
L 1184 753 
L 1184 63 
z
" transform="scale(0.015625)"/>
       </defs>
       <use xlink:href="#IPAexGothic-30"/>
       <use xlink:href="#IPAexGothic-2e" x="62.988281"/>
       <use xlink:href="#IPAexGothic-30" x="89.404297"/>
      </g>
     </g>
    </g>
    <g id="xtick_2">
     <g id="line2d_2">
      <g>
       <use xlink:href="#m7ecb13a13d" x="260.181818" y="512.64" style="stroke: #000000; stroke-width: 0.8"/>
      </g>
     </g>
     <g id="text_2">
      <!-- 0.2 -->
      <g transform="translate(252.562287 527.130625) scale(0.1 -0.1)">
       <defs>
        <path id="IPAexGothic-32" d="M 3659 63 
L 447 63 
L 447 594 
Q 825 1475 1894 2203 
L 2072 2322 
Q 2619 2697 2791 2906 
Q 2988 3153 2988 3444 
Q 2988 3772 2756 4003 
Q 2500 4259 2084 4259 
Q 1250 4259 991 3328 
L 497 3506 
Q 853 4725 2116 4725 
Q 2806 4725 3216 4316 
Q 3575 3947 3575 3425 
Q 3575 3038 3344 2722 
Q 3131 2416 2366 1938 
L 2231 1856 
Q 1256 1253 978 569 
L 3659 569 
L 3659 63 
z
" transform="scale(0.015625)"/>
       </defs>
       <use xlink:href="#IPAexGothic-30"/>
       <use xlink:href="#IPAexGothic-2e" x="62.988281"/>
       <use xlink:href="#IPAexGothic-32" x="89.404297"/>
      </g>
     </g>
    </g>
    <g id="xtick_3">
     <g id="line2d_3">
      <g>
       <use xlink:href="#m7ecb13a13d" x="381.927273" y="512.64" style="stroke: #000000; stroke-width: 0.8"/>
      </g>
     </g>
     <g id="text_3">
      <!-- 0.4 -->
      <g transform="translate(374.307741 527.130625) scale(0.1 -0.1)">
       <defs>
        <path id="IPAexGothic-34" d="M 3813 1159 
L 3059 1159 
L 3059 63 
L 2547 63 
L 2547 1159 
L 197 1159 
L 197 1672 
L 2456 4678 
L 3059 4678 
L 3059 1634 
L 3813 1634 
L 3813 1159 
z
M 2578 4109 
L 2559 4109 
Q 2278 3656 2003 3284 
L 759 1634 
L 2547 1634 
L 2547 3144 
Q 2547 3481 2578 4109 
z
" transform="scale(0.015625)"/>
       </defs>
       <use xlink:href="#IPAexGothic-30"/>
       <use xlink:href="#IPAexGothic-2e" x="62.988281"/>
       <use xlink:href="#IPAexGothic-34" x="89.404297"/>
      </g>
     </g>
    </g>
    <g id="xtick_4">
     <g id="line2d_4">
      <g>
       <use xlink:href="#m7ecb13a13d" x="503.672727" y="512.64" style="stroke: #000000; stroke-width: 0.8"/>
      </g>
     </g>
     <g id="text_4">
      <!-- 0.6 -->
      <g transform="translate(496.053196 527.130625) scale(0.1 -0.1)">
       <defs>
        <path id="IPAexGothic-36" d="M 1056 2328 
Q 1509 2981 2234 2981 
Q 2906 2981 3316 2513 
Q 3675 2106 3675 1522 
Q 3675 884 3272 434 
Q 2853 -31 2178 -31 
Q 1375 -31 922 581 
Q 481 1178 481 2228 
Q 481 3425 1013 4109 
Q 1494 4725 2272 4725 
Q 3191 4725 3609 4025 
L 3150 3775 
Q 2894 4266 2300 4266 
Q 1119 4266 1031 2328 
L 1056 2328 
z
M 2141 2547 
Q 1684 2547 1384 2206 
Q 1116 1900 1116 1541 
Q 1116 1156 1353 844 
Q 1672 428 2159 428 
Q 2669 428 2941 844 
Q 3125 1128 3125 1503 
Q 3125 1944 2881 2228 
Q 2600 2547 2141 2547 
z
" transform="scale(0.015625)"/>
       </defs>
       <use xlink:href="#IPAexGothic-30"/>
       <use xlink:href="#IPAexGothic-2e" x="62.988281"/>
       <use xlink:href="#IPAexGothic-36" x="89.404297"/>
      </g>
     </g>
    </g>
    <g id="xtick_5">
     <g id="line2d_5">
      <g>
       <use xlink:href="#m7ecb13a13d" x="625.418182" y="512.64" style="stroke: #000000; stroke-width: 0.8"/>
      </g>
     </g>
     <g id="text_5">
      <!-- 0.8 -->
      <g transform="translate(617.798651 527.130625) scale(0.1 -0.1)">
       <defs>
        <path id="IPAexGothic-38" d="M 2541 2425 
Q 3700 2031 3700 1197 
Q 3700 541 3100 197 
Q 2663 -56 2016 -56 
Q 1366 -56 928 197 
Q 347 531 347 1178 
Q 347 1988 1409 2381 
L 1409 2400 
Q 481 2734 481 3509 
Q 481 4100 981 4456 
Q 1406 4756 2019 4756 
Q 2703 4756 3131 4403 
Q 3553 4069 3553 3566 
Q 3553 2706 2541 2444 
L 2541 2425 
z
M 2022 2625 
Q 2997 2856 2997 3528 
Q 2997 3916 2675 4150 
Q 2413 4347 2016 4347 
Q 1606 4347 1331 4128 
Q 1050 3897 1050 3522 
Q 1050 3150 1350 2925 
Q 1494 2809 1722 2722 
Q 1984 2616 2022 2625 
z
M 1978 2209 
Q 922 1931 922 1216 
Q 922 775 1313 556 
Q 1606 391 2009 391 
Q 2575 391 2881 697 
Q 3106 922 3106 1250 
Q 3106 1594 2794 1850 
Q 2609 1994 2350 2100 
Q 2047 2222 1978 2209 
z
" transform="scale(0.015625)"/>
       </defs>
       <use xlink:href="#IPAexGothic-30"/>
       <use xlink:href="#IPAexGothic-2e" x="62.988281"/>
       <use xlink:href="#IPAexGothic-38" x="89.404297"/>
      </g>
     </g>
    </g>
    <g id="xtick_6">
     <g id="line2d_6">
      <g>
       <use xlink:href="#m7ecb13a13d" x="747.163636" y="512.64" style="stroke: #000000; stroke-width: 0.8"/>
      </g>
     </g>
     <g id="text_6">
      <!-- 1.0 -->
      <g transform="translate(739.544105 527.130625) scale(0.1 -0.1)">
       <defs>
        <path id="IPAexGothic-31" d="M 2463 63 
L 1900 63 
L 1900 4103 
Q 1372 3922 788 3797 
L 684 4231 
Q 1519 4441 2106 4731 
L 2463 4731 
L 2463 63 
z
" transform="scale(0.015625)"/>
       </defs>
       <use xlink:href="#IPAexGothic-31"/>
       <use xlink:href="#IPAexGothic-2e" x="62.988281"/>
       <use xlink:href="#IPAexGothic-30" x="89.404297"/>
      </g>
     </g>
    </g>
    <g id="text_7">
     <!-- RCE -->
     <g transform="translate(423.117188 548.011875) scale(0.2 -0.2)">
      <defs>
       <path id="IPAexGothic-52" d="M 4072 63 
L 3394 63 
Q 3138 641 2828 1197 
Q 2584 1641 2344 1825 
Q 2050 2044 1625 2044 
L 1172 2044 
L 1172 63 
L 609 63 
L 609 4634 
L 2009 4634 
Q 2713 4634 3131 4378 
Q 3688 4044 3688 3381 
Q 3688 2784 3181 2459 
Q 2906 2272 2522 2216 
L 2522 2197 
Q 2941 2050 3247 1581 
Q 3516 1166 4072 63 
z
M 1172 2478 
L 1869 2478 
Q 3106 2478 3106 3369 
Q 3106 4181 1928 4181 
L 1172 4181 
L 1172 2478 
z
" transform="scale(0.015625)"/>
       <path id="IPAexGothic-43" d="M 4353 1088 
Q 4181 694 3859 428 
Q 3313 -31 2559 -31 
Q 1588 -31 959 653 
Q 378 1294 378 2331 
Q 378 3406 1013 4078 
Q 1619 4725 2534 4725 
Q 3813 4725 4322 3628 
L 3809 3391 
Q 3425 4238 2541 4238 
Q 1891 4238 1453 3744 
Q 994 3216 994 2322 
Q 994 1550 1384 1056 
Q 1841 472 2563 472 
Q 3456 472 3878 1319 
L 4353 1088 
z
" transform="scale(0.015625)"/>
       <path id="IPAexGothic-45" d="M 3547 63 
L 609 63 
L 609 4634 
L 3469 4634 
L 3469 4147 
L 1166 4147 
L 1166 2650 
L 3206 2650 
L 3206 2191 
L 1166 2191 
L 1166 556 
L 3547 556 
L 3547 63 
z
" transform="scale(0.015625)"/>
      </defs>
      <use xlink:href="#IPAexGothic-52"/>
      <use xlink:href="#IPAexGothic-43" x="64.794922"/>
      <use xlink:href="#IPAexGothic-45" x="137.304688"/>
     </g>
    </g>
   </g>
   <g id="matplotlib.axis_2">
    <g id="ytick_1">
     <g id="line2d_7">
      <defs>
       <path id="mab5512d9f8" d="M 0 0 
L -3.5 0 
" style="stroke: #000000; stroke-width: 0.8"/>
      </defs>
      <g>
       <use xlink:href="#mab5512d9f8" x="108" y="507.882384" style="stroke: #000000; stroke-width: 0.8"/>
      </g>
     </g>
     <g id="text_8">
      <!-- $\mathdefault{10^{-4}}$ -->
      <g transform="translate(78.9 511.627697) scale(0.1 -0.1)">
       <defs>
        <path id="IPAexGothic-2212" d="M 416 2222 
L 3922 2222 
L 3922 1856 
L 416 1856 
L 416 2222 
z
" transform="scale(0.015625)"/>
       </defs>
       <use xlink:href="#IPAexGothic-31" transform="translate(0 0.2875)"/>
       <use xlink:href="#IPAexGothic-30" transform="translate(62.988281 0.2875)"/>
       <use xlink:href="#IPAexGothic-2212" transform="translate(126.865234 35.834375) scale(0.7)"/>
       <use xlink:href="#IPAexGothic-34" transform="translate(174.34082 35.834375) scale(0.7)"/>
      </g>
     </g>
    </g>
    <g id="ytick_2">
     <g id="line2d_8">
      <g>
       <use xlink:href="#mab5512d9f8" x="108" y="352.288398" style="stroke: #000000; stroke-width: 0.8"/>
      </g>
     </g>
     <g id="text_9">
      <!-- $\mathdefault{10^{-3}}$ -->
      <g transform="translate(78.9 356.033711) scale(0.1 -0.1)">
       <defs>
        <path id="IPAexGothic-33" d="M 2381 2419 
Q 3506 2216 3506 1278 
Q 3506 716 3128 356 
Q 2709 -31 1944 -31 
Q 797 -31 288 881 
L 756 1131 
Q 1109 441 1938 441 
Q 2425 441 2694 691 
Q 2950 928 2950 1291 
Q 2950 1719 2566 1978 
Q 2216 2213 1644 2213 
L 1363 2213 
L 1363 2669 
L 1656 2669 
Q 2231 2669 2534 2888 
Q 2859 3119 2859 3509 
Q 2859 3934 2494 4138 
Q 2259 4278 1931 4278 
Q 1238 4278 903 3578 
L 434 3803 
Q 897 4725 1938 4725 
Q 2597 4725 3006 4394 
Q 3416 4069 3416 3534 
Q 3416 3028 3019 2706 
Q 2763 2500 2381 2444 
L 2381 2419 
z
" transform="scale(0.015625)"/>
       </defs>
       <use xlink:href="#IPAexGothic-31" transform="translate(0 0.773438)"/>
       <use xlink:href="#IPAexGothic-30" transform="translate(62.988281 0.773438)"/>
       <use xlink:href="#IPAexGothic-2212" transform="translate(126.865234 36.320312) scale(0.7)"/>
       <use xlink:href="#IPAexGothic-33" transform="translate(174.34082 36.320312) scale(0.7)"/>
      </g>
     </g>
    </g>
    <g id="ytick_3">
     <g id="line2d_9">
      <g>
       <use xlink:href="#mab5512d9f8" x="108" y="196.694412" style="stroke: #000000; stroke-width: 0.8"/>
      </g>
     </g>
     <g id="text_10">
      <!-- $\mathdefault{10^{-2}}$ -->
      <g transform="translate(78.9 200.439724) scale(0.1 -0.1)">
       <use xlink:href="#IPAexGothic-31" transform="translate(0 0.773438)"/>
       <use xlink:href="#IPAexGothic-30" transform="translate(62.988281 0.773438)"/>
       <use xlink:href="#IPAexGothic-2212" transform="translate(126.865234 36.320312) scale(0.7)"/>
       <use xlink:href="#IPAexGothic-32" transform="translate(174.34082 36.320312) scale(0.7)"/>
      </g>
     </g>
    </g>
    <g id="ytick_4">
     <g id="line2d_10">
      <defs>
       <path id="m310d692a4f" d="M 0 0 
L -2 0 
" style="stroke: #000000; stroke-width: 0.6"/>
      </defs>
      <g>
       <use xlink:href="#m310d692a4f" x="108" y="461.043927" style="stroke: #000000; stroke-width: 0.6"/>
      </g>
     </g>
    </g>
    <g id="ytick_5">
     <g id="line2d_11">
      <g>
       <use xlink:href="#m310d692a4f" x="108" y="433.645186" style="stroke: #000000; stroke-width: 0.6"/>
      </g>
     </g>
    </g>
    <g id="ytick_6">
     <g id="line2d_12">
      <g>
       <use xlink:href="#m310d692a4f" x="108" y="414.20547" style="stroke: #000000; stroke-width: 0.6"/>
      </g>
     </g>
    </g>
    <g id="ytick_7">
     <g id="line2d_13">
      <g>
       <use xlink:href="#m310d692a4f" x="108" y="399.126855" style="stroke: #000000; stroke-width: 0.6"/>
      </g>
     </g>
    </g>
    <g id="ytick_8">
     <g id="line2d_14">
      <g>
       <use xlink:href="#m310d692a4f" x="108" y="386.806729" style="stroke: #000000; stroke-width: 0.6"/>
      </g>
     </g>
    </g>
    <g id="ytick_9">
     <g id="line2d_15">
      <g>
       <use xlink:href="#m310d692a4f" x="108" y="376.390212" style="stroke: #000000; stroke-width: 0.6"/>
      </g>
     </g>
    </g>
    <g id="ytick_10">
     <g id="line2d_16">
      <g>
       <use xlink:href="#m310d692a4f" x="108" y="367.367013" style="stroke: #000000; stroke-width: 0.6"/>
      </g>
     </g>
    </g>
    <g id="ytick_11">
     <g id="line2d_17">
      <g>
       <use xlink:href="#m310d692a4f" x="108" y="359.407988" style="stroke: #000000; stroke-width: 0.6"/>
      </g>
     </g>
    </g>
    <g id="ytick_12">
     <g id="line2d_18">
      <g>
       <use xlink:href="#m310d692a4f" x="108" y="305.449941" style="stroke: #000000; stroke-width: 0.6"/>
      </g>
     </g>
    </g>
    <g id="ytick_13">
     <g id="line2d_19">
      <g>
       <use xlink:href="#m310d692a4f" x="108" y="278.0512" style="stroke: #000000; stroke-width: 0.6"/>
      </g>
     </g>
    </g>
    <g id="ytick_14">
     <g id="line2d_20">
      <g>
       <use xlink:href="#m310d692a4f" x="108" y="258.611484" style="stroke: #000000; stroke-width: 0.6"/>
      </g>
     </g>
    </g>
    <g id="ytick_15">
     <g id="line2d_21">
      <g>
       <use xlink:href="#m310d692a4f" x="108" y="243.532869" style="stroke: #000000; stroke-width: 0.6"/>
      </g>
     </g>
    </g>
    <g id="ytick_16">
     <g id="line2d_22">
      <g>
       <use xlink:href="#m310d692a4f" x="108" y="231.212743" style="stroke: #000000; stroke-width: 0.6"/>
      </g>
     </g>
    </g>
    <g id="ytick_17">
     <g id="line2d_23">
      <g>
       <use xlink:href="#m310d692a4f" x="108" y="220.796225" style="stroke: #000000; stroke-width: 0.6"/>
      </g>
     </g>
    </g>
    <g id="ytick_18">
     <g id="line2d_24">
      <g>
       <use xlink:href="#m310d692a4f" x="108" y="211.773027" style="stroke: #000000; stroke-width: 0.6"/>
      </g>
     </g>
    </g>
    <g id="ytick_19">
     <g id="line2d_25">
      <g>
       <use xlink:href="#m310d692a4f" x="108" y="203.814002" style="stroke: #000000; stroke-width: 0.6"/>
      </g>
     </g>
    </g>
    <g id="ytick_20">
     <g id="line2d_26">
      <g>
       <use xlink:href="#m310d692a4f" x="108" y="149.855955" style="stroke: #000000; stroke-width: 0.6"/>
      </g>
     </g>
    </g>
    <g id="ytick_21">
     <g id="line2d_27">
      <g>
       <use xlink:href="#m310d692a4f" x="108" y="122.457214" style="stroke: #000000; stroke-width: 0.6"/>
      </g>
     </g>
    </g>
    <g id="ytick_22">
     <g id="line2d_28">
      <g>
       <use xlink:href="#m310d692a4f" x="108" y="103.017498" style="stroke: #000000; stroke-width: 0.6"/>
      </g>
     </g>
    </g>
    <g id="ytick_23">
     <g id="line2d_29">
      <g>
       <use xlink:href="#m310d692a4f" x="108" y="87.938883" style="stroke: #000000; stroke-width: 0.6"/>
      </g>
     </g>
    </g>
    <g id="ytick_24">
     <g id="line2d_30">
      <g>
       <use xlink:href="#m310d692a4f" x="108" y="75.618757" style="stroke: #000000; stroke-width: 0.6"/>
      </g>
     </g>
    </g>
    <g id="text_11">
     <!-- 非可用性 -->
     <g transform="translate(71.1 330.88) rotate(-90) scale(0.2 -0.2)">
      <defs>
       <path id="IPAexGothic-975e" d="M 2672 1703 
Q 2934 1753 3359 1866 
L 3378 1475 
Q 2878 1347 2616 1275 
Q 2403 188 1178 -522 
L 856 -153 
Q 1909 413 2131 1166 
Q 1172 953 453 828 
L 288 1288 
Q 1041 1384 1906 1550 
L 2206 1603 
Q 2238 1878 2247 2422 
L 2247 2466 
L 641 2466 
L 641 2869 
L 2247 2869 
L 2247 3731 
L 544 3731 
L 544 4134 
L 2247 4134 
L 2247 5106 
L 2706 5106 
L 2706 2625 
Q 2706 2119 2672 1703 
z
M 4128 4134 
L 5919 4134 
L 5919 3731 
L 4128 3731 
L 4128 2875 
L 5728 2875 
L 5728 2472 
L 4128 2472 
L 4128 1563 
L 6047 1563 
L 6047 1159 
L 4128 1159 
L 4128 -384 
L 3669 -384 
L 3669 5141 
L 4128 5141 
L 4128 4134 
z
" transform="scale(0.015625)"/>
       <path id="IPAexGothic-53ef" d="M 5100 4313 
L 5100 288 
Q 5100 -63 4913 -200 
Q 4756 -322 4313 -322 
Q 3859 -322 3313 -263 
L 3231 263 
Q 3869 178 4294 178 
Q 4525 178 4575 275 
Q 4613 341 4613 497 
L 4613 4313 
L 416 4313 
L 416 4728 
L 5972 4728 
L 5972 4313 
L 5100 4313 
z
M 3666 3406 
L 3666 1259 
L 1713 1259 
L 1713 741 
L 1259 741 
L 1259 3406 
L 3666 3406 
z
M 1713 3003 
L 1713 1669 
L 3213 1669 
L 3213 3003 
L 1713 3003 
z
" transform="scale(0.015625)"/>
       <path id="IPAexGothic-7528" d="M 5553 4891 
L 5553 203 
Q 5553 -53 5456 -169 
Q 5328 -316 4941 -316 
Q 4544 -316 4191 -275 
L 4113 203 
Q 4516 131 4875 131 
Q 5106 131 5106 372 
L 5106 1625 
L 3441 1625 
L 3441 -103 
L 3000 -103 
L 3000 1625 
L 1469 1625 
Q 1441 234 816 -488 
L 459 -134 
Q 1022 466 1022 1831 
L 1022 4891 
L 5553 4891 
z
M 1475 4500 
L 1475 3469 
L 3000 3469 
L 3000 4500 
L 1475 4500 
z
M 1475 3084 
L 1475 2009 
L 3000 2009 
L 3000 3084 
L 1475 3084 
z
M 5106 2009 
L 5106 3084 
L 3441 3084 
L 3441 2009 
L 5106 2009 
z
M 5106 3469 
L 5106 4500 
L 3441 4500 
L 3441 3469 
L 5106 3469 
z
" transform="scale(0.015625)"/>
       <path id="IPAexGothic-6027" d="M 3106 3788 
L 3900 3788 
L 3900 5216 
L 4353 5216 
L 4353 3788 
L 5884 3788 
L 5884 3372 
L 4353 3372 
L 4353 2069 
L 5756 2069 
L 5756 1653 
L 4353 1653 
L 4353 153 
L 6081 153 
L 6081 -269 
L 2231 -269 
L 2231 153 
L 3900 153 
L 3900 1653 
L 2606 1653 
L 2606 2069 
L 3900 2069 
L 3900 3372 
L 2984 3372 
Q 2806 2803 2544 2325 
L 2147 2613 
Q 2638 3428 2875 4875 
L 3313 4778 
Q 3234 4309 3106 3788 
z
M 269 2188 
Q 459 2891 525 3950 
L 934 3884 
Q 884 2694 672 1931 
L 269 2188 
z
M 1997 3047 
Q 1872 3591 1650 4078 
L 1984 4256 
Q 2216 3844 2394 3291 
L 1997 3047 
z
M 1159 5313 
L 1613 5313 
L 1613 -447 
L 1159 -447 
L 1159 5313 
z
" transform="scale(0.015625)"/>
      </defs>
      <use xlink:href="#IPAexGothic-975e"/>
      <use xlink:href="#IPAexGothic-53ef" x="100"/>
      <use xlink:href="#IPAexGothic-7528" x="200"/>
      <use xlink:href="#IPAexGothic-6027" x="300"/>
     </g>
    </g>
   </g>
   <g id="line2d_31">
    <defs>
     <path id="m5e736245de" d="M 0 1.5 
C 0.397805 1.5 0.77937 1.341951 1.06066 1.06066 
C 1.341951 0.77937 1.5 0.397805 1.5 0 
C 1.5 -0.397805 1.341951 -0.77937 1.06066 -1.06066 
C 0.77937 -1.341951 0.397805 -1.5 0 -1.5 
C -0.397805 -1.5 -0.77937 -1.341951 -1.06066 -1.06066 
C -1.341951 -0.77937 -1.5 -0.397805 -1.5 0 
C -1.5 0.397805 -1.341951 0.77937 -1.06066 1.06066 
C -0.77937 1.341951 -0.397805 1.5 0 1.5 
z
" style="stroke: #1f77b4"/>
    </defs>
    <g clip-path="url(#pd6d327a545)">
     <use xlink:href="#m5e736245de" x="747.163636" y="492.48" style="fill: #1f77b4; stroke: #1f77b4"/>
     <use xlink:href="#m5e736245de" x="747.163636" y="492.48" style="fill: #1f77b4; stroke: #1f77b4"/>
     <use xlink:href="#m5e736245de" x="352.29062" y="363.032607" style="fill: #1f77b4; stroke: #1f77b4"/>
     <use xlink:href="#m5e736245de" x="352.29062" y="363.032607" style="fill: #1f77b4; stroke: #1f77b4"/>
     <use xlink:href="#m5e736245de" x="352.29062" y="363.032607" style="fill: #1f77b4; stroke: #1f77b4"/>
     <use xlink:href="#m5e736245de" x="280.827025" y="123.128755" style="fill: #1f77b4; stroke: #1f77b4"/>
     <use xlink:href="#m5e736245de" x="280.827025" y="123.128755" style="fill: #1f77b4; stroke: #1f77b4"/>
     <use xlink:href="#m5e736245de" x="234.814942" y="306.180892" style="fill: #1f77b4; stroke: #1f77b4"/>
     <use xlink:href="#m5e736245de" x="208.763192" y="303.169025" style="fill: #1f77b4; stroke: #1f77b4"/>
     <use xlink:href="#m5e736245de" x="208.763192" y="303.169025" style="fill: #1f77b4; stroke: #1f77b4"/>
     <use xlink:href="#m5e736245de" x="208.763192" y="303.169025" style="fill: #1f77b4; stroke: #1f77b4"/>
     <use xlink:href="#m5e736245de" x="208.763192" y="303.169025" style="fill: #1f77b4; stroke: #1f77b4"/>
     <use xlink:href="#m5e736245de" x="138.436364" y="334.353074" style="fill: #1f77b4; stroke: #1f77b4"/>
     <use xlink:href="#m5e736245de" x="138.436364" y="334.353074" style="fill: #1f77b4; stroke: #1f77b4"/>
     <use xlink:href="#m5e736245de" x="138.436364" y="334.353074" style="fill: #1f77b4; stroke: #1f77b4"/>
    </g>
   </g>
   <g id="line2d_32">
    <defs>
     <path id="m734cbe2f4b" d="M 0 1.5 
C 0.397805 1.5 0.77937 1.341951 1.06066 1.06066 
C 1.341951 0.77937 1.5 0.397805 1.5 0 
C 1.5 -0.397805 1.341951 -0.77937 1.06066 -1.06066 
C 0.77937 -1.341951 0.397805 -1.5 0 -1.5 
C -0.397805 -1.5 -0.77937 -1.341951 -1.06066 -1.06066 
C -1.341951 -0.77937 -1.5 -0.397805 -1.5 0 
C -1.5 0.397805 -1.341951 0.77937 -1.06066 1.06066 
C -0.77937 1.341951 -0.397805 1.5 0 1.5 
z
" style="stroke: #ff7f0e"/>
    </defs>
    <g clip-path="url(#pd6d327a545)">
     <use xlink:href="#m734cbe2f4b" x="747.163636" y="306.180892" style="fill: #ff7f0e; stroke: #ff7f0e"/>
     <use xlink:href="#m734cbe2f4b" x="662.424156" y="303.169025" style="fill: #ff7f0e; stroke: #ff7f0e"/>
     <use xlink:href="#m734cbe2f4b" x="662.424156" y="303.169025" style="fill: #ff7f0e; stroke: #ff7f0e"/>
     <use xlink:href="#m734cbe2f4b" x="662.424156" y="303.169025" style="fill: #ff7f0e; stroke: #ff7f0e"/>
     <use xlink:href="#m734cbe2f4b" x="662.424156" y="303.169025" style="fill: #ff7f0e; stroke: #ff7f0e"/>
     <use xlink:href="#m734cbe2f4b" x="597.516839" y="294.745169" style="fill: #ff7f0e; stroke: #ff7f0e"/>
     <use xlink:href="#m734cbe2f4b" x="597.516839" y="294.745169" style="fill: #ff7f0e; stroke: #ff7f0e"/>
     <use xlink:href="#m734cbe2f4b" x="597.516839" y="294.745169" style="fill: #ff7f0e; stroke: #ff7f0e"/>
     <use xlink:href="#m734cbe2f4b" x="508.070074" y="300.285948" style="fill: #ff7f0e; stroke: #ff7f0e"/>
     <use xlink:href="#m734cbe2f4b" x="508.070074" y="300.285948" style="fill: #ff7f0e; stroke: #ff7f0e"/>
     <use xlink:href="#m734cbe2f4b" x="508.070074" y="300.285948" style="fill: #ff7f0e; stroke: #ff7f0e"/>
     <use xlink:href="#m734cbe2f4b" x="484.321362" y="282.784915" style="fill: #ff7f0e; stroke: #ff7f0e"/>
     <use xlink:href="#m734cbe2f4b" x="484.321362" y="282.784915" style="fill: #ff7f0e; stroke: #ff7f0e"/>
     <use xlink:href="#m734cbe2f4b" x="314.904649" y="292.194396" style="fill: #ff7f0e; stroke: #ff7f0e"/>
     <use xlink:href="#m734cbe2f4b" x="314.904649" y="292.194396" style="fill: #ff7f0e; stroke: #ff7f0e"/>
     <use xlink:href="#m734cbe2f4b" x="138.436364" y="269.106855" style="fill: #ff7f0e; stroke: #ff7f0e"/>
    </g>
   </g>
   <g id="line2d_33">
    <defs>
     <path id="m5c44132ffb" d="M 0 1.5 
C 0.397805 1.5 0.77937 1.341951 1.06066 1.06066 
C 1.341951 0.77937 1.5 0.397805 1.5 0 
C 1.5 -0.397805 1.341951 -0.77937 1.06066 -1.06066 
C 0.77937 -1.341951 0.397805 -1.5 0 -1.5 
C -0.397805 -1.5 -0.77937 -1.341951 -1.06066 -1.06066 
C -1.341951 -0.77937 -1.5 -0.397805 -1.5 0 
C -1.5 0.397805 -1.341951 0.77937 -1.06066 1.06066 
C -0.77937 1.341951 -0.397805 1.5 0 1.5 
z
" style="stroke: #2ca02c"/>
    </defs>
    <g clip-path="url(#pd6d327a545)">
     <use xlink:href="#m5c44132ffb" x="747.163636" y="306.180892" style="fill: #2ca02c; stroke: #2ca02c"/>
     <use xlink:href="#m5c44132ffb" x="670.677653" y="144.843338" style="fill: #2ca02c; stroke: #2ca02c"/>
     <use xlink:href="#m5c44132ffb" x="670.677653" y="144.843338" style="fill: #2ca02c; stroke: #2ca02c"/>
     <use xlink:href="#m5c44132ffb" x="670.677653" y="144.843338" style="fill: #2ca02c; stroke: #2ca02c"/>
     <use xlink:href="#m5c44132ffb" x="670.677653" y="144.843338" style="fill: #2ca02c; stroke: #2ca02c"/>
     <use xlink:href="#m5c44132ffb" x="534.956196" y="120.370528" style="fill: #2ca02c; stroke: #2ca02c"/>
     <use xlink:href="#m5c44132ffb" x="534.956196" y="120.370528" style="fill: #2ca02c; stroke: #2ca02c"/>
     <use xlink:href="#m5c44132ffb" x="534.956196" y="120.370528" style="fill: #2ca02c; stroke: #2ca02c"/>
     <use xlink:href="#m5c44132ffb" x="460.692234" y="103.369861" style="fill: #2ca02c; stroke: #2ca02c"/>
     <use xlink:href="#m5c44132ffb" x="460.692234" y="103.369861" style="fill: #2ca02c; stroke: #2ca02c"/>
     <use xlink:href="#m5c44132ffb" x="460.692234" y="103.369861" style="fill: #2ca02c; stroke: #2ca02c"/>
     <use xlink:href="#m5c44132ffb" x="312.978498" y="89.28" style="fill: #2ca02c; stroke: #2ca02c"/>
     <use xlink:href="#m5c44132ffb" x="312.978498" y="89.28" style="fill: #2ca02c; stroke: #2ca02c"/>
     <use xlink:href="#m5c44132ffb" x="138.436364" y="102.594162" style="fill: #2ca02c; stroke: #2ca02c"/>
     <use xlink:href="#m5c44132ffb" x="138.436364" y="102.594162" style="fill: #2ca02c; stroke: #2ca02c"/>
    </g>
   </g>
   <g id="patch_3">
    <path d="M 108 512.64 
L 108 69.12 
" style="fill: none; stroke: #000000; stroke-width: 0.8; stroke-linejoin: miter; stroke-linecap: square"/>
   </g>
   <g id="patch_4">
    <path d="M 777.6 512.64 
L 777.6 69.12 
" style="fill: none; stroke: #000000; stroke-width: 0.8; stroke-linejoin: miter; stroke-linecap: square"/>
   </g>
   <g id="patch_5">
    <path d="M 108 512.64 
L 777.6 512.64 
" style="fill: none; stroke: #000000; stroke-width: 0.8; stroke-linejoin: miter; stroke-linecap: square"/>
   </g>
   <g id="patch_6">
    <path d="M 108 69.12 
L 777.6 69.12 
" style="fill: none; stroke: #000000; stroke-width: 0.8; stroke-linejoin: miter; stroke-linecap: square"/>
   </g>
   <g id="legend_1">
    <g id="patch_7">
     <path d="M 573.4 122.72 
L 770.6 122.72 
Q 772.6 122.72 772.6 120.72 
L 772.6 76.12 
Q 772.6 74.12 770.6 74.12 
L 573.4 74.12 
Q 571.4 74.12 571.4 76.12 
L 571.4 120.72 
Q 571.4 122.72 573.4 122.72 
z
" style="fill: #ffffff; opacity: 0.8; stroke: #cccccc; stroke-linejoin: miter"/>
    </g>
    <g id="line2d_34">
     <g>
      <use xlink:href="#m5e736245de" x="585.4" y="82.92" style="fill: #1f77b4; stroke: #1f77b4"/>
     </g>
    </g>
    <g id="text_12">
     <!-- $\mathrm{r_{add}}=$0.8におけるサービス実装形態 -->
     <g transform="translate(603.4 86.42) scale(0.1 -0.1)">
      <defs>
       <path id="DejaVuSans-72" d="M 2631 2963 
Q 2534 3019 2420 3045 
Q 2306 3072 2169 3072 
Q 1681 3072 1420 2755 
Q 1159 2438 1159 1844 
L 1159 0 
L 581 0 
L 581 3500 
L 1159 3500 
L 1159 2956 
Q 1341 3275 1631 3429 
Q 1922 3584 2338 3584 
Q 2397 3584 2469 3576 
Q 2541 3569 2628 3553 
L 2631 2963 
z
" transform="scale(0.015625)"/>
       <path id="DejaVuSans-61" d="M 2194 1759 
Q 1497 1759 1228 1600 
Q 959 1441 959 1056 
Q 959 750 1161 570 
Q 1363 391 1709 391 
Q 2188 391 2477 730 
Q 2766 1069 2766 1631 
L 2766 1759 
L 2194 1759 
z
M 3341 1997 
L 3341 0 
L 2766 0 
L 2766 531 
Q 2569 213 2275 61 
Q 1981 -91 1556 -91 
Q 1019 -91 701 211 
Q 384 513 384 1019 
Q 384 1609 779 1909 
Q 1175 2209 1959 2209 
L 2766 2209 
L 2766 2266 
Q 2766 2663 2505 2880 
Q 2244 3097 1772 3097 
Q 1472 3097 1187 3025 
Q 903 2953 641 2809 
L 641 3341 
Q 956 3463 1253 3523 
Q 1550 3584 1831 3584 
Q 2591 3584 2966 3190 
Q 3341 2797 3341 1997 
z
" transform="scale(0.015625)"/>
       <path id="DejaVuSans-64" d="M 2906 2969 
L 2906 4863 
L 3481 4863 
L 3481 0 
L 2906 0 
L 2906 525 
Q 2725 213 2448 61 
Q 2172 -91 1784 -91 
Q 1150 -91 751 415 
Q 353 922 353 1747 
Q 353 2572 751 3078 
Q 1150 3584 1784 3584 
Q 2172 3584 2448 3432 
Q 2725 3281 2906 2969 
z
M 947 1747 
Q 947 1113 1208 752 
Q 1469 391 1925 391 
Q 2381 391 2643 752 
Q 2906 1113 2906 1747 
Q 2906 2381 2643 2742 
Q 2381 3103 1925 3103 
Q 1469 3103 1208 2742 
Q 947 2381 947 1747 
z
" transform="scale(0.015625)"/>
       <path id="DejaVuSans-3d" d="M 678 2906 
L 4684 2906 
L 4684 2381 
L 678 2381 
L 678 2906 
z
M 678 1631 
L 4684 1631 
L 4684 1100 
L 678 1100 
L 678 1631 
z
" transform="scale(0.015625)"/>
       <path id="IPAexGothic-306b" d="M 1088 -38 
Q 922 1003 922 2081 
Q 922 3222 1331 4794 
L 1813 4684 
Q 1391 3113 1391 2003 
Q 1391 1441 1422 1147 
Q 1434 1181 1813 2016 
L 2125 1797 
Q 1800 1081 1691 763 
Q 1581 453 1581 269 
Q 1581 78 1588 6 
L 1088 -38 
z
M 2834 4038 
Q 3969 4213 5313 4172 
L 5338 3681 
Q 3959 3728 2869 3547 
L 2834 4038 
z
M 5650 256 
Q 5044 172 4372 172 
Q 3463 172 3047 434 
Q 2784 594 2675 841 
Q 2572 1075 2572 1447 
Q 2572 1563 2578 1656 
L 3053 1684 
Q 3050 1613 3044 1528 
Q 3041 1481 3041 1466 
Q 3041 1200 3119 1053 
Q 3178 944 3309 850 
Q 3569 678 4275 678 
Q 4891 678 5588 763 
L 5650 256 
z
" transform="scale(0.015625)"/>
       <path id="IPAexGothic-304a" d="M 2113 4891 
L 2588 4891 
L 2588 3853 
Q 3216 3956 3675 4084 
L 3719 3634 
Q 3034 3469 2588 3419 
L 2588 2456 
Q 3184 2656 3803 2656 
Q 4438 2656 4866 2431 
Q 5494 2113 5494 1447 
Q 5494 28 3278 -97 
L 3053 366 
Q 3759 366 4259 550 
Q 4975 828 4975 1428 
Q 4975 2247 3766 2247 
Q 3191 2247 2588 2034 
L 2588 459 
Q 2588 141 2438 6 
Q 2313 -103 2056 -103 
Q 1547 -103 1128 231 
Q 763 519 763 856 
Q 763 1675 2113 2278 
L 2113 3359 
Q 1572 3297 959 3297 
L 959 3750 
L 1031 3750 
Q 1647 3750 2113 3794 
L 2113 4891 
z
M 2113 1838 
Q 1250 1444 1250 869 
Q 1250 716 1391 575 
Q 1616 350 1888 350 
Q 2113 350 2113 581 
L 2113 1838 
z
M 5422 3028 
Q 4844 3653 4084 4134 
L 4391 4475 
Q 5113 4047 5769 3413 
L 5422 3028 
z
" transform="scale(0.015625)"/>
       <path id="IPAexGothic-3051" d="M 2553 3481 
Q 2891 3463 3219 3463 
Q 3691 3463 4338 3506 
Q 4303 4434 4250 4897 
L 4763 4897 
Q 4769 4772 4825 3566 
Q 5319 3634 5709 3744 
L 5747 3291 
Q 5356 3159 4838 3109 
Q 4844 2875 4844 2606 
Q 4844 1434 4575 856 
Q 4250 138 3347 -313 
L 2938 56 
Q 3809 441 4094 1006 
Q 4363 1525 4363 2625 
Q 4363 2853 4359 3059 
Q 3722 3009 3175 3009 
Q 2791 3009 2591 3022 
L 2553 3481 
z
M 1925 2088 
L 2253 1881 
Q 1697 872 1678 166 
L 1259 72 
Q 941 1184 941 2272 
Q 941 3181 1344 4872 
L 1819 4750 
Q 1416 3166 1416 2163 
Q 1416 1722 1491 1222 
L 1925 2088 
z
" transform="scale(0.015625)"/>
       <path id="IPAexGothic-308b" d="M 4391 4397 
L 2613 2588 
Q 3225 2809 3759 2809 
Q 4263 2809 4659 2625 
Q 5391 2269 5391 1484 
Q 5391 756 4706 275 
Q 4072 -166 3053 -166 
Q 2559 -166 2247 19 
Q 1863 250 1863 666 
Q 1863 934 2069 1141 
Q 2331 1403 2741 1403 
Q 3509 1403 4019 428 
Q 4872 784 4872 1491 
Q 4872 1981 4469 2222 
Q 4166 2406 3681 2406 
Q 2425 2406 1238 1209 
L 891 1581 
Q 2438 2934 3578 4281 
Q 2594 4125 1588 4066 
L 1478 4550 
Q 2594 4581 4109 4763 
L 4391 4397 
z
M 3591 303 
Q 3244 1025 2731 1025 
Q 2553 1025 2434 934 
Q 2316 844 2316 700 
Q 2316 250 3034 250 
Q 3275 250 3591 303 
z
" transform="scale(0.015625)"/>
       <path id="IPAexGothic-30b5" d="M 3994 4919 
L 4506 4919 
L 4506 3531 
L 5888 3531 
L 5888 3072 
L 4506 3072 
Q 4488 1719 4153 1063 
Q 3728 222 2644 -325 
L 2266 38 
Q 3325 525 3713 1319 
Q 3975 1853 3994 3072 
L 2331 3072 
L 2331 1575 
L 1819 1575 
L 1819 3072 
L 513 3072 
L 513 3531 
L 1819 3531 
L 1819 4797 
L 2331 4797 
L 2331 3531 
L 3994 3531 
L 3994 4919 
z
" transform="scale(0.015625)"/>
       <path id="IPAexGothic-30fc" d="M 588 2688 
L 5809 2688 
L 5809 2175 
L 588 2175 
L 588 2688 
z
" transform="scale(0.015625)"/>
       <path id="IPAexGothic-30d3" d="M 1356 4775 
L 1881 4775 
L 1881 2778 
Q 3553 3153 4747 3891 
L 5131 3475 
Q 3644 2681 1881 2297 
L 1881 1063 
Q 1881 744 2072 669 
Q 2266 584 3163 584 
Q 4169 584 5394 716 
L 5394 206 
Q 4259 97 3263 97 
Q 1938 97 1644 294 
Q 1356 478 1356 966 
L 1356 4775 
z
M 5972 4250 
Q 5609 4791 5216 5119 
L 5516 5350 
Q 5900 5041 6291 4525 
L 5972 4250 
z
M 5375 3781 
Q 5084 4272 4641 4672 
L 4953 4916 
Q 5325 4606 5709 4056 
L 5375 3781 
z
" transform="scale(0.015625)"/>
       <path id="IPAexGothic-30b9" d="M 4359 4481 
L 4716 4147 
Q 4328 3072 3647 2150 
Q 4659 1434 5659 453 
L 5234 19 
Q 4256 1088 3353 1778 
Q 2372 597 1044 -31 
L 653 403 
Q 3128 1453 4097 4000 
L 1241 3963 
L 1228 4453 
L 4359 4481 
z
" transform="scale(0.015625)"/>
       <path id="IPAexGothic-5b9f" d="M 3525 1275 
Q 4288 350 6022 91 
L 5738 -375 
Q 3953 -41 3219 1050 
Q 2731 -144 728 -472 
L 466 -44 
Q 2422 150 2872 1275 
L 384 1275 
L 384 1659 
L 2950 1659 
L 2950 2144 
L 966 2144 
L 966 2509 
L 2950 2509 
L 2950 2969 
L 1266 2969 
L 1266 3341 
L 2950 3341 
L 2950 3988 
L 3403 3988 
L 3403 3341 
L 5125 3341 
L 5125 2969 
L 3403 2969 
L 3403 2509 
L 5444 2509 
L 5444 2144 
L 3403 2144 
L 3403 1659 
L 6016 1659 
L 6016 1275 
L 3525 1275 
z
M 3413 4544 
L 5778 4544 
L 5778 3269 
L 5309 3269 
L 5309 4147 
L 1084 4147 
L 1084 3269 
L 616 3269 
L 616 4544 
L 2938 4544 
L 2938 5313 
L 3413 5313 
L 3413 4544 
z
" transform="scale(0.015625)"/>
       <path id="IPAexGothic-88c5" d="M 3588 1709 
Q 3831 1291 4234 916 
Q 4722 1234 5134 1638 
L 5572 1391 
Q 5041 944 4559 659 
Q 5131 263 6069 -50 
L 5763 -447 
Q 3756 350 3178 1709 
Q 2775 1338 2275 1050 
L 2275 153 
Q 3034 278 3722 447 
L 3741 66 
Q 2363 -281 1175 -466 
L 1003 -31 
Q 1078 -22 1834 78 
L 1834 825 
Q 1244 566 472 334 
L 191 719 
Q 1719 1091 2647 1709 
L 344 1709 
L 344 2094 
L 2941 2094 
L 2941 2594 
L 3394 2594 
L 3394 2094 
L 6038 2094 
L 6038 1709 
L 3588 1709 
z
M 1728 3334 
Q 1716 3322 1638 3272 
Q 1234 2978 666 2694 
L 416 3097 
Q 1050 3359 1728 3794 
L 1728 5313 
L 2169 5313 
L 2169 2463 
L 1728 2463 
L 1728 3334 
z
M 3909 4525 
L 3909 5313 
L 4356 5313 
L 4356 4525 
L 5956 4525 
L 5956 4116 
L 4356 4116 
L 4356 3103 
L 5738 3103 
L 5738 2719 
L 2609 2719 
L 2609 3103 
L 3909 3103 
L 3909 4116 
L 2431 4116 
L 2431 4525 
L 3909 4525 
z
M 1100 3853 
Q 853 4472 581 4800 
L 953 5025 
Q 1259 4631 1491 4103 
L 1100 3853 
z
" transform="scale(0.015625)"/>
       <path id="IPAexGothic-5f62" d="M 2856 4488 
L 2856 2859 
L 3744 2859 
L 3744 2456 
L 2875 2456 
L 2875 -384 
L 2434 -384 
L 2434 2456 
L 1653 2456 
L 1653 2394 
Q 1653 1425 1466 759 
Q 1266 59 756 -525 
L 425 -181 
Q 1213 666 1213 2341 
L 1213 2456 
L 322 2456 
L 322 2859 
L 1213 2859 
L 1213 4488 
L 481 4488 
L 481 4891 
L 3609 4891 
L 3609 4488 
L 2856 4488 
z
M 2416 4488 
L 1653 4488 
L 1653 2859 
L 2416 2859 
L 2416 4488 
z
M 3369 6 
Q 4859 738 5728 2203 
L 6144 1966 
Q 5216 403 3688 -384 
L 3369 6 
z
M 3334 3425 
Q 4566 4031 5197 5141 
L 5634 4909 
Q 4872 3697 3650 3066 
L 3334 3425 
z
M 3303 1728 
Q 4684 2331 5472 3706 
L 5888 3481 
Q 5025 2031 3609 1338 
L 3303 1728 
z
" transform="scale(0.015625)"/>
       <path id="IPAexGothic-614b" d="M 866 4341 
Q 1219 4859 1434 5375 
L 1897 5269 
Q 1597 4741 1319 4347 
Q 1856 4356 2594 4403 
Q 2397 4625 2191 4831 
L 2522 5050 
Q 2984 4625 3375 4116 
L 3022 3853 
Q 2950 3950 2822 4116 
Q 2019 3994 494 3938 
L 359 4331 
Q 828 4331 866 4341 
z
M 2956 3713 
L 2956 1900 
Q 2956 1622 2841 1538 
Q 2741 1466 2491 1466 
Q 2209 1466 1881 1497 
L 1819 1881 
Q 2134 1825 2375 1825 
Q 2541 1825 2541 1997 
L 2541 2247 
L 1159 2247 
L 1159 1391 
L 744 1391 
L 744 3713 
L 2956 3713 
z
M 1159 3419 
L 1159 3128 
L 2541 3128 
L 2541 3419 
L 1159 3419 
z
M 1159 2834 
L 1159 2534 
L 2541 2534 
L 2541 2834 
L 1159 2834 
z
M 3931 2706 
Q 4703 2809 5328 3066 
L 5672 2725 
Q 4816 2459 3931 2347 
L 3931 2084 
Q 3931 1909 4066 1881 
Q 4216 1850 4650 1850 
Q 5403 1850 5469 1991 
Q 5516 2094 5525 2378 
L 5947 2278 
Q 5947 2219 5941 2200 
Q 5922 1769 5819 1638 
Q 5675 1453 4663 1453 
Q 3816 1453 3656 1556 
Q 3509 1663 3509 1931 
L 3509 3263 
L 3931 3263 
L 3931 2706 
z
M 3931 4678 
Q 4731 4822 5288 5056 
L 5641 4709 
Q 4847 4447 3931 4313 
L 3931 4103 
Q 3931 3925 4041 3884 
Q 4156 3853 4559 3853 
Q 5359 3853 5434 3950 
Q 5519 4041 5519 4397 
L 5934 4300 
Q 5906 3675 5744 3578 
Q 5556 3469 4591 3469 
Q 3900 3469 3719 3541 
Q 3509 3625 3509 3922 
L 3509 5313 
L 3931 5313 
L 3931 4678 
z
M 397 -25 
Q 888 447 1141 1131 
L 1563 991 
Q 1288 181 781 -353 
L 397 -25 
z
M 1966 1247 
L 2434 1247 
L 2434 359 
Q 2434 147 2563 106 
Q 2681 63 3241 63 
Q 4159 63 4259 191 
Q 4341 294 4341 728 
L 4791 594 
Q 4781 -44 4591 -206 
Q 4409 -359 3138 -359 
Q 2388 -359 2203 -281 
Q 1966 -178 1966 134 
L 1966 1247 
z
M 5703 -225 
Q 5228 519 4678 1050 
L 5044 1275 
Q 5578 788 6106 56 
L 5703 -225 
z
M 3516 378 
Q 3134 878 2766 1197 
L 3106 1472 
Q 3547 1091 3884 678 
L 3516 378 
z
" transform="scale(0.015625)"/>
      </defs>
      <use xlink:href="#DejaVuSans-72" transform="translate(0 0.015625)"/>
      <use xlink:href="#DejaVuSans-61" transform="translate(42.070312 -16.390625) scale(0.7)"/>
      <use xlink:href="#DejaVuSans-64" transform="translate(84.96582 -16.390625) scale(0.7)"/>
      <use xlink:href="#DejaVuSans-64" transform="translate(129.399414 -16.390625) scale(0.7)"/>
      <use xlink:href="#DejaVuSans-3d" transform="translate(196.049805 0.015625)"/>
      <use xlink:href="#IPAexGothic-30" transform="translate(299.321289 0.015625)"/>
      <use xlink:href="#IPAexGothic-2e" transform="translate(362.30957 0.015625)"/>
      <use xlink:href="#IPAexGothic-38" transform="translate(388.725586 0.015625)"/>
      <use xlink:href="#IPAexGothic-306b" transform="translate(451.713867 0.015625)"/>
      <use xlink:href="#IPAexGothic-304a" transform="translate(551.713867 0.015625)"/>
      <use xlink:href="#IPAexGothic-3051" transform="translate(651.713867 0.015625)"/>
      <use xlink:href="#IPAexGothic-308b" transform="translate(751.713867 0.015625)"/>
      <use xlink:href="#IPAexGothic-30b5" transform="translate(851.713867 0.015625)"/>
      <use xlink:href="#IPAexGothic-30fc" transform="translate(951.713867 0.015625)"/>
      <use xlink:href="#IPAexGothic-30d3" transform="translate(1051.713867 0.015625)"/>
      <use xlink:href="#IPAexGothic-30b9" transform="translate(1151.713867 0.015625)"/>
      <use xlink:href="#IPAexGothic-5b9f" transform="translate(1251.713867 0.015625)"/>
      <use xlink:href="#IPAexGothic-88c5" transform="translate(1351.713867 0.015625)"/>
      <use xlink:href="#IPAexGothic-5f62" transform="translate(1451.713867 0.015625)"/>
      <use xlink:href="#IPAexGothic-614b" transform="translate(1551.713867 0.015625)"/>
     </g>
    </g>
    <g id="line2d_35">
     <g>
      <use xlink:href="#m734cbe2f4b" x="585.4" y="98.12" style="fill: #ff7f0e; stroke: #ff7f0e"/>
     </g>
    </g>
    <g id="text_13">
     <!-- $\mathrm{r_{add}}=$1におけるサービス実装形態 -->
     <g transform="translate(603.4 101.62) scale(0.1 -0.1)">
      <use xlink:href="#DejaVuSans-72" transform="translate(0 0.015625)"/>
      <use xlink:href="#DejaVuSans-61" transform="translate(42.070312 -16.390625) scale(0.7)"/>
      <use xlink:href="#DejaVuSans-64" transform="translate(84.96582 -16.390625) scale(0.7)"/>
      <use xlink:href="#DejaVuSans-64" transform="translate(129.399414 -16.390625) scale(0.7)"/>
      <use xlink:href="#DejaVuSans-3d" transform="translate(196.049805 0.015625)"/>
      <use xlink:href="#IPAexGothic-31" transform="translate(299.321289 0.015625)"/>
      <use xlink:href="#IPAexGothic-306b" transform="translate(362.30957 0.015625)"/>
      <use xlink:href="#IPAexGothic-304a" transform="translate(462.30957 0.015625)"/>
      <use xlink:href="#IPAexGothic-3051" transform="translate(562.30957 0.015625)"/>
      <use xlink:href="#IPAexGothic-308b" transform="translate(662.30957 0.015625)"/>
      <use xlink:href="#IPAexGothic-30b5" transform="translate(762.30957 0.015625)"/>
      <use xlink:href="#IPAexGothic-30fc" transform="translate(862.30957 0.015625)"/>
      <use xlink:href="#IPAexGothic-30d3" transform="translate(962.30957 0.015625)"/>
      <use xlink:href="#IPAexGothic-30b9" transform="translate(1062.30957 0.015625)"/>
      <use xlink:href="#IPAexGothic-5b9f" transform="translate(1162.30957 0.015625)"/>
      <use xlink:href="#IPAexGothic-88c5" transform="translate(1262.30957 0.015625)"/>
      <use xlink:href="#IPAexGothic-5f62" transform="translate(1362.30957 0.015625)"/>
      <use xlink:href="#IPAexGothic-614b" transform="translate(1462.30957 0.015625)"/>
     </g>
    </g>
    <g id="line2d_36">
     <g>
      <use xlink:href="#m5c44132ffb" x="585.4" y="113.32" style="fill: #2ca02c; stroke: #2ca02c"/>
     </g>
    </g>
    <g id="text_14">
     <!-- $\mathrm{r_{add}}=$1.2におけるサービス実装形態 -->
     <g transform="translate(603.4 116.82) scale(0.1 -0.1)">
      <use xlink:href="#DejaVuSans-72" transform="translate(0 0.015625)"/>
      <use xlink:href="#DejaVuSans-61" transform="translate(42.070312 -16.390625) scale(0.7)"/>
      <use xlink:href="#DejaVuSans-64" transform="translate(84.96582 -16.390625) scale(0.7)"/>
      <use xlink:href="#DejaVuSans-64" transform="translate(129.399414 -16.390625) scale(0.7)"/>
      <use xlink:href="#DejaVuSans-3d" transform="translate(196.049805 0.015625)"/>
      <use xlink:href="#IPAexGothic-31" transform="translate(299.321289 0.015625)"/>
      <use xlink:href="#IPAexGothic-2e" transform="translate(362.30957 0.015625)"/>
      <use xlink:href="#IPAexGothic-32" transform="translate(388.725586 0.015625)"/>
      <use xlink:href="#IPAexGothic-306b" transform="translate(451.713867 0.015625)"/>
      <use xlink:href="#IPAexGothic-304a" transform="translate(551.713867 0.015625)"/>
      <use xlink:href="#IPAexGothic-3051" transform="translate(651.713867 0.015625)"/>
      <use xlink:href="#IPAexGothic-308b" transform="translate(751.713867 0.015625)"/>
      <use xlink:href="#IPAexGothic-30b5" transform="translate(851.713867 0.015625)"/>
      <use xlink:href="#IPAexGothic-30fc" transform="translate(951.713867 0.015625)"/>
      <use xlink:href="#IPAexGothic-30d3" transform="translate(1051.713867 0.015625)"/>
      <use xlink:href="#IPAexGothic-30b9" transform="translate(1151.713867 0.015625)"/>
      <use xlink:href="#IPAexGothic-5b9f" transform="translate(1251.713867 0.015625)"/>
      <use xlink:href="#IPAexGothic-88c5" transform="translate(1351.713867 0.015625)"/>
      <use xlink:href="#IPAexGothic-5f62" transform="translate(1451.713867 0.015625)"/>
      <use xlink:href="#IPAexGothic-614b" transform="translate(1551.713867 0.015625)"/>
     </g>
    </g>
   </g>
  </g>
 </g>
 <defs>
  <clipPath id="pd6d327a545">
   <rect x="108" y="69.12" width="669.6" height="443.52"/>
  </clipPath>
 </defs>
</svg>
